<svg xmlns="http://www.w3.org/2000/svg" viewBox="0 0 64 64"><path d="m28.558 7.098-.47 2.74a1 1 0 0 0 1.45 1.053L32 9.6l2.461 1.293a1 1 0 0 0 1.452-1.054l-.47-2.74 1.99-1.942a1 1 0 0 0-.553-1.705l-2.752-.4L32.897.558a1.04 1.04 0 0 0-1.793 0L29.873 3.05l-2.752.4a1 1 0 0 0-.554 1.705Zm14 5-.47 2.74a1 1 0 0 0 1.45 1.053L46 14.6l2.461 1.293a1 1 0 0 0 1.452-1.054l-.47-2.74 1.99-1.942a1 1 0 0 0-.553-1.705l-2.752-.4-1.231-2.493a1.04 1.04 0 0 0-1.793 0L43.873 8.05l-2.752.4a1 1 0 0 0-.554 1.705Zm12 7-.47 2.74a1 1 0 0 0 1.45 1.053L58 21.6l2.461 1.293a1 1 0 0 0 1.452-1.054l-.47-2.74 1.99-1.941a1 1 0 0 0-.553-1.706l-2.752-.4-1.231-2.493a1.04 1.04 0 0 0-1.793 0l-1.231 2.493-2.752.4a1 1 0 0 0-.554 1.706Zm-40-7-.47 2.74a1 1 0 0 0 1.45 1.053L18 14.6l2.461 1.293a1 1 0 0 0 1.452-1.054l-.47-2.74 1.99-1.942a1 1 0 0 0-.553-1.705l-2.752-.4-1.232-2.493a1.04 1.04 0 0 0-1.793 0l-1.23 2.493-2.752.4a1 1 0 0 0-.554 1.705Zm-12 7-.47 2.74a1 1 0 0 0 1.45 1.053L6 21.6l2.461 1.293a1 1 0 0 0 1.452-1.054l-.47-2.74 1.99-1.941a1 1 0 0 0-.553-1.706l-2.752-.4-1.232-2.493a1.04 1.04 0 0 0-1.793 0l-1.23 2.493-2.752.4a1 1 0 0 0-.554 1.705ZM63 62V29a1 1 0 0 0 0-2H46v35h-2V19a1 1 0 0 0-1-1H21a1 1 0 0 0-1 1v43h-2V27H1a1 1 0 0 0 0 2v33a1 1 0 0 0 0 2h62a1 1 0 0 0 0-2Zm-8-29a1 1 0 0 1 1-1h4a1 1 0 0 1 1 1v4a1 1 0 0 1-1 1h-4a1 1 0 0 1-1-1Zm0 7a1 1 0 0 1 1-1h4a1 1 0 0 1 1 1v4a1 1 0 0 1-1 1h-4a1 1 0 0 1-1-1Zm0 7a1 1 0 0 1 1-1h4a1 1 0 0 1 1 1v4a1 1 0 0 1-1 1h-4a1 1 0 0 1-1-1Zm0 7a1 1 0 0 1 1-1h4a1 1 0 0 1 1 1v4a1 1 0 0 1-1 1h-4a1 1 0 0 1-1-1Zm-7-21a1 1 0 0 1 1-1h4a1 1 0 0 1 1 1v4a1 1 0 0 1-1 1h-4a1 1 0 0 1-1-1Zm0 7a1 1 0 0 1 1-1h4a1 1 0 0 1 1 1v4a1 1 0 0 1-1 1h-4a1 1 0 0 1-1-1Zm0 7a1 1 0 0 1 1-1h4a1 1 0 0 1 1 1v4a1 1 0 0 1-1 1h-4a1 1 0 0 1-1-1Zm0 7a1 1 0 0 1 1-1h4a1 1 0 0 1 1 1v4a1 1 0 0 1-1 1h-4a1 1 0 0 1-1-1ZM10 33a1 1 0 0 1 1-1h4a1 1 0 0 1 1 1v4a1 1 0 0 1-1 1h-4a1 1 0 0 1-1-1Zm0 7a1 1 0 0 1 1-1h4a1 1 0 0 1 1 1v4a1 1 0 0 1-1 1h-4a1 1 0 0 1-1-1Zm0 7a1 1 0 0 1 1-1h4a1 1 0 0 1 1 1v4a1 1 0 0 1-1 1h-4a1 1 0 0 1-1-1Zm0 7a1 1 0 0 1 1-1h4a1 1 0 0 1 1 1v4a1 1 0 0 1-1 1h-4a1 1 0 0 1-1-1ZM3 33a1 1 0 0 1 1-1h4a1 1 0 0 1 1 1v4a1 1 0 0 1-1 1H4a1 1 0 0 1-1-1Zm0 7a1 1 0 0 1 1-1h4a1 1 0 0 1 1 1v4a1 1 0 0 1-1 1H4a1 1 0 0 1-1-1Zm0 7a1 1 0 0 1 1-1h4a1 1 0 0 1 1 1v4a1 1 0 0 1-1 1H4a1 1 0 0 1-1-1Zm0 7a1 1 0 0 1 1-1h4a1 1 0 0 1 1 1v4a1 1 0 0 1-1 1H4a1 1 0 0 1-1-1Zm33-33a1 1 0 0 1 1-1h4a1 1 0 0 1 1 1v4a1 1 0 0 1-1 1h-4a1 1 0 0 1-1-1Zm0 7a1 1 0 0 1 1-1h4a1 1 0 0 1 1 1v4a1 1 0 0 1-1 1h-4a1 1 0 0 1-1-1Zm0 7a1 1 0 0 1 1-1h4a1 1 0 0 1 1 1v4a1 1 0 0 1-1 1h-4a1 1 0 0 1-1-1Zm0 7a1 1 0 0 1 1-1h4a1 1 0 0 1 1 1v4a1 1 0 0 1-1 1h-4a1 1 0 0 1-1-1Zm-7-21a1 1 0 0 1 1-1h4a1 1 0 0 1 1 1v4a1 1 0 0 1-1 1h-4a1 1 0 0 1-1-1Zm0 7a1 1 0 0 1 1-1h4a1 1 0 0 1 1 1v4a1 1 0 0 1-1 1h-4a1 1 0 0 1-1-1Zm0 7a1 1 0 0 1 1-1h4a1 1 0 0 1 1 1v4a1 1 0 0 1-1 1h-4a1 1 0 0 1-1-1Zm0 7a1 1 0 0 1 1-1h4a1 1 0 0 1 1 1v4a1 1 0 0 1-1 1h-4a1 1 0 0 1-1-1Zm-7-21a1 1 0 0 1 1-1h4a1 1 0 0 1 1 1v4a1 1 0 0 1-1 1h-4a1 1 0 0 1-1-1Zm0 7a1 1 0 0 1 1-1h4a1 1 0 0 1 1 1v4a1 1 0 0 1-1 1h-4a1 1 0 0 1-1-1Zm0 7a1 1 0 0 1 1-1h4a1 1 0 0 1 1 1v4a1 1 0 0 1-1 1h-4a1 1 0 0 1-1-1Zm0 7a1 1 0 0 1 1-1h4a1 1 0 0 1 1 1v4a1 1 0 0 1-1 1h-4a1 1 0 0 1-1-1Zm14 20v-7h-3v7h-2v-7h-3v7h-2V50a1 1 0 0 1 1-1h10a1 1 0 0 1 1 1v12Z" style="fill:#1b1b1e"/><path d="M24 36h2v2h-2zm7-7h2v2h-2zm-3 22h8v2h-8zm3-15h2v2h-2zm-7-14h2v2h-2zm7 21h2v2h-2zm0-21h2v2h-2zm7 7h2v2h-2zM24 43h2v2h-2zm0-14h2v2h-2zm14-7h2v2h-2zm0 21h2v2h-2zm0-7h2v2h-2zm19 12h2v2h-2zm-7 0h2v2h-2zm7 7h2v2h-2zm-7 0h2v2h-2zm7-21h2v2h-2zm-7 0h2v2h-2zm7 7h2v2h-2zm-7 0h2v2h-2zM5 48h2v2H5zm7 0h2v2h-2zm-7 7h2v2H5zm7 0h2v2h-2zM5 34h2v2H5zm7 0h2v2h-2zm-7 7h2v2H5zm7 0h2v2h-2z" style="fill:#1b1b1e"/></svg>